<svg width="854" height="205" viewBox="0 0 854 205" fill="none" xmlns="http://www.w3.org/2000/svg">
<path d="M172.535 120.607C172.671 146.559 161.688 169.45 141.606 185.061C127.859 195.741 110.824 202.18 93.6641 203.649C89.5187 203.967 91.4452 203.967 89.5187 203.967C87.7179 203.967 88.9952 203.99 85.5394 203.967C79.3621 203.926 73.2266 203.228 67.2901 201.831C34.4038 194.088 13.6417 170.806 5.85202 153.214C-2.8067 133.649 0.229615 115.42 1.93623 108.498C5.95672 92.2002 15.9451 77.2678 29.3363 67.5114C59.5528 45.5235 100.941 54.9308 120.635 77.5142C129.995 88.2463 135.911 102.891 137.272 118.758C138.413 131.965 136.319 144.669 131.817 151.909C130.613 153.85 128.037 154.456 126.058 153.275C124.08 152.094 123.462 149.568 124.666 147.627C131.429 136.751 132.623 103.898 114.269 82.8443C105.537 72.8414 92.0831 65.9298 77.3518 63.8964C61.6363 61.7192 46.3501 65.3444 34.32 74.1046C22.4784 82.7211 13.6312 95.959 10.0714 110.419C8.56376 116.54 5.87296 132.653 13.5265 149.927C21.0964 167.027 41.2616 187.238 69.2375 193.831C91.7481 199.13 117.473 193.297 136.382 178.601C154.401 164.593 164.264 144.001 164.138 120.627C164.075 109.156 161.112 92.6213 147.302 79.0239C139.188 71.0237 128.299 65.0569 114.939 61.2673C112.72 60.6408 111.432 58.3609 112.081 56.1837C112.72 54.0065 115.044 52.7433 117.264 53.38C132.005 57.5599 144.109 64.2353 153.239 73.2317C165.75 85.5556 172.409 101.936 172.514 120.596L172.535 120.607Z" fill="#FFA88B"/>
<path d="M100.449 55.5494C100.376 55.5494 100.302 55.5494 100.229 55.5494C97.9152 55.4364 96.1457 53.4954 96.2609 51.236C96.2609 51.0409 97.2241 31.7643 92.743 18.6804C92.0101 16.534 93.1827 14.2028 95.3814 13.4736C97.5696 12.7547 99.9464 13.9049 100.69 16.0616C105.684 30.6449 104.679 50.8047 104.626 51.6571C104.511 53.8548 102.658 55.5494 100.449 55.5494Z" fill="#FFA88B"/>
<path d="M61.0923 49.3452C33.0326 49.3452 22.3636 40.4207 16.6994 33.2729C7.57997 21.7706 7.69514 8.06032 7.70561 7.48521C7.73702 5.77014 8.84684 4.2502 10.5011 3.67509C11.234 3.41834 28.6561 -2.49711 46.7065 2.01137C67.301 7.14631 77.8757 29.9352 78.3155 30.9005C79.2578 32.975 78.3155 35.3987 76.2005 36.323C74.0856 37.2473 71.6146 36.323 70.6723 34.2485C70.5572 33.9918 61.2493 14.1093 44.6543 9.97052C33.1792 7.10522 21.6203 9.24136 16.312 10.5764C16.7831 14.5714 18.3327 21.9247 23.3374 28.2304C34.4042 42.1768 57.4592 41.9509 73.8448 40.5542C80.0744 40.0202 84.1054 39.2397 84.1473 39.2294C86.4088 38.7775 88.618 40.2153 89.0786 42.4439C89.5393 44.6622 88.0735 46.8291 85.812 47.281C85.634 47.3221 81.3099 48.1642 74.5672 48.7393C69.6882 49.1501 65.2175 49.3452 61.1237 49.3452H61.0923Z" fill="#FFA88B"/>
<path d="M242.917 76.338C246.159 69.4813 251.27 63.809 258.251 59.321C265.357 54.7083 273.772 52.402 283.496 52.402C292.722 52.402 301.012 54.5837 308.367 58.947C315.847 63.1857 321.644 69.2943 325.758 77.273C329.997 85.127 332.116 94.29 332.116 104.762C332.116 115.234 329.997 124.459 325.758 132.438C321.644 140.417 315.847 146.588 308.367 150.951C301.012 155.314 292.722 157.496 283.496 157.496C273.897 157.496 265.544 155.252 258.438 150.764C251.332 146.151 246.159 140.417 242.917 133.56V204.246H230.014V53.898H242.917V76.338ZM318.839 104.762C318.839 96.2847 317.156 88.9917 313.79 82.883C310.549 76.6497 306.061 71.9123 300.326 68.671C294.592 65.4297 288.109 63.809 280.878 63.809C273.897 63.809 267.477 65.492 261.617 68.858C255.883 72.224 251.332 77.0237 247.966 83.257C244.6 89.4903 242.917 96.721 242.917 104.949C242.917 113.177 244.6 120.408 247.966 126.641C251.332 132.874 255.883 137.674 261.617 141.04C267.477 144.406 273.897 146.089 280.878 146.089C288.109 146.089 294.592 144.468 300.326 141.227C306.061 137.861 310.549 133.061 313.79 126.828C317.156 120.47 318.839 113.115 318.839 104.762ZM448.581 99.713C448.581 104.201 448.456 107.629 448.207 109.998H363.496C363.87 117.727 365.74 124.335 369.106 129.82C372.472 135.305 376.897 139.482 382.383 142.349C387.868 145.092 393.852 146.463 400.335 146.463C408.812 146.463 415.918 144.406 421.653 140.292C427.512 136.178 431.377 130.63 433.247 123.649H447.085C444.591 133.622 439.231 141.788 431.003 148.146C422.899 154.379 412.677 157.496 400.335 157.496C390.735 157.496 382.133 155.377 374.529 151.138C366.924 146.775 360.94 140.666 356.577 132.812C352.338 124.833 350.219 115.546 350.219 104.949C350.219 94.3523 352.338 85.0647 356.577 77.086C360.815 69.1073 366.737 62.9987 374.342 58.76C381.946 54.5213 390.611 52.402 400.335 52.402C410.059 52.402 418.536 54.5213 425.767 58.76C433.122 62.9987 438.732 68.7333 442.597 75.964C446.586 83.07 448.581 90.9863 448.581 99.713ZM435.304 99.339C435.428 91.7343 433.87 85.2517 430.629 79.891C427.512 74.5303 423.211 70.4787 417.726 67.736C412.24 64.9933 406.256 63.622 399.774 63.622C390.05 63.622 381.759 66.7387 374.903 72.972C368.046 79.2053 364.244 87.9943 363.496 99.339H435.304ZM466.546 104.762C466.546 94.29 468.603 85.127 472.717 77.273C476.955 69.2943 482.752 63.1857 490.108 58.947C497.588 54.5837 506.003 52.402 515.353 52.402C525.077 52.402 533.429 54.646 540.411 59.134C547.517 63.622 552.628 69.3567 555.745 76.338V53.898H568.835V156H555.745V133.373C552.503 140.354 547.33 146.151 540.224 150.764C533.242 155.252 524.89 157.496 515.166 157.496C505.94 157.496 497.588 155.314 490.108 150.951C482.752 146.588 476.955 140.417 472.717 132.438C468.603 124.459 466.546 115.234 466.546 104.762ZM555.745 104.949C555.745 96.721 554.062 89.4903 550.696 83.257C547.33 77.0237 542.717 72.224 536.858 68.858C531.123 65.492 524.765 63.809 517.784 63.809C510.553 63.809 504.07 65.4297 498.336 68.671C492.601 71.9123 488.051 76.6497 484.685 82.883C481.443 88.9917 479.823 96.2847 479.823 104.762C479.823 113.115 481.443 120.47 484.685 126.828C488.051 133.061 492.601 137.861 498.336 141.227C504.07 144.468 510.553 146.089 517.784 146.089C524.765 146.089 531.123 144.406 536.858 141.04C542.717 137.674 547.33 132.874 550.696 126.641C554.062 120.408 555.745 113.177 555.745 104.949ZM592.734 104.949C592.734 94.3523 594.854 85.127 599.092 77.273C603.331 69.2943 609.19 63.1857 616.67 58.947C624.15 54.5837 632.69 52.402 642.289 52.402C654.881 52.402 665.228 55.5187 673.331 61.752C681.559 67.9853 686.858 76.4627 689.226 87.184H675.201C673.456 79.8287 669.654 74.094 663.794 69.98C658.06 65.7413 650.891 63.622 642.289 63.622C635.433 63.622 629.262 65.1803 623.776 68.297C618.291 71.4137 613.928 76.0887 610.686 82.322C607.57 88.4307 606.011 95.973 606.011 104.949C606.011 113.925 607.57 121.53 610.686 127.763C613.928 133.996 618.291 138.671 623.776 141.788C629.262 144.905 635.433 146.463 642.289 146.463C650.891 146.463 658.06 144.406 663.794 140.292C669.654 136.053 673.456 130.194 675.201 122.714H689.226C686.858 133.186 681.559 141.601 673.331 147.959C665.103 154.317 654.756 157.496 642.289 157.496C632.69 157.496 624.15 155.377 616.67 151.138C609.19 146.775 603.331 140.666 599.092 132.812C594.854 124.833 592.734 115.546 592.734 104.949ZM762.022 52.028C769.751 52.028 776.67 53.6487 782.779 56.89C789.012 60.1313 793.874 65.118 797.365 71.85C800.98 78.4573 802.788 86.5607 802.788 96.16V156H789.885V97.656C789.885 86.5607 787.08 78.0833 781.47 72.224C775.985 66.3647 768.442 63.435 758.843 63.435C748.994 63.435 741.14 66.5517 735.281 72.785C729.422 79.0183 726.492 88.1813 726.492 100.274V156H713.402V17.62H726.492V71.289C729.733 65.1803 734.471 60.443 740.704 57.077C747.062 53.711 754.168 52.028 762.022 52.028Z" fill="black"/>
</svg>
